<?xml version="1.0" encoding="UTF-8" standalone="no"?>
<!-- Generator: Adobe Illustrator 16.0.4, SVG Export Plug-In . SVG Version: 6.00 Build 0)  -->

<svg
   xmlns:dc="http://purl.org/dc/elements/1.1/"
   xmlns:cc="http://creativecommons.org/ns#"
   xmlns:rdf="http://www.w3.org/1999/02/22-rdf-syntax-ns#"
   xmlns:svg="http://www.w3.org/2000/svg"
   xmlns="http://www.w3.org/2000/svg"
   xmlns:xlink="http://www.w3.org/1999/xlink"
   xmlns:sodipodi="http://sodipodi.sourceforge.net/DTD/sodipodi-0.dtd"
   xmlns:inkscape="http://www.inkscape.org/namespaces/inkscape"
   version="1.1"
   x="0px"
   y="0px"
   width="300px"
   height="300px"
   viewBox="0 0 300 300"
   enable-background="new 0 0 300 300"
   xml:space="preserve"
   id="svg2"
   inkscape:version="0.48.4 r9939"
   sodipodi:docname="getting_started.svg"><metadata
     id="metadata268"><rdf:RDF><cc:Work
         rdf:about=""><dc:format>image/svg+xml</dc:format><dc:type
           rdf:resource="http://purl.org/dc/dcmitype/StillImage" /></cc:Work></rdf:RDF></metadata><defs
     id="defs266" /><sodipodi:namedview
     pagecolor="#ffffff"
     bordercolor="#666666"
     borderopacity="1"
     objecttolerance="10"
     gridtolerance="10"
     guidetolerance="10"
     inkscape:pageopacity="0"
     inkscape:pageshadow="2"
     inkscape:window-width="1291"
     inkscape:window-height="951"
     id="namedview264"
     showgrid="false"
     inkscape:zoom="2.2250293"
     inkscape:cx="98.089031"
     inkscape:cy="155.9143"
     inkscape:window-x="3444"
     inkscape:window-y="94"
     inkscape:window-maximized="0"
     inkscape:current-layer="svg2" /><g
     id="mail"
     display="none"><polygon
       display="inline"
       fill="#F78E1E"
       points="107.027,152.418 7.412,75.404 7.412,229.596  "
       id="polygon5" /><polygon
       display="inline"
       fill="#F78E1E"
       points="189.912,152.418 289.527,75.404 289.527,229.596  "
       id="polygon7" /><polygon
       display="inline"
       fill="#F78E1E"
       points="7.496,58.427 149.465,168.573 289.607,58.427  "
       id="polygon9" /><polygon
       display="inline"
       fill="#F78E1E"
       points="185.281,161.802 150.702,188.354 114.245,160.721 7.808,241.573 290.296,241.573     "
       id="polygon11" /></g><g
     id="Command_Line"
     display="none"><g
       display="inline"
       id="g14"><rect
         x="21.5"
         y="37.5"
         fill="#FFFFFF"
         width="262"
         height="223.5"
         id="rect16" /><path
         fill="#F78E1E"
         d="M273.5,47.5V251h-242V47.5H273.5 M293.5,27.5h-282V271h282V27.5L293.5,27.5z"
         id="path18" /></g><g
       display="inline"
       id="g20"><polygon
         fill="#F78E1E"
         points="135,112 94.5,112 94.5,120.5 135,120.5 135,112   "
         id="polygon22" /></g><rect
       x="53"
       y="59"
       display="inline"
       fill="none"
       width="89.604"
       height="69.5"
       id="rect24" /><text
       transform="matrix(1 0 0 1 53 109.9194)"
       display="inline"
       fill="#F78E1E"
       stroke="#F78E1E"
       stroke-width="8"
       stroke-miterlimit="10"
       font-family="'OpenSans'"
       font-size="67"
       id="text26">&gt;</text>
</g><g
     id="CloudSim"
     display="none"><g
       display="inline"
       id="g88"><g
         id="g90"><path
           fill="#F78E1E"
           d="M40.295,158.297c-3.2-1.676-7.783-2.182-11.347-2.182c-13.171,0-20.594,9.309-20.594,21.902     c0,12.801,7.205,21.896,20.594,21.896c3.344,0,8.439-0.436,11.347-2.176l0.296,4.361c-2.766,1.676-8.443,2.188-11.643,2.188     c-16.008,0-25.612-10.555-25.612-26.27c0-15.424,9.896-26.266,25.612-26.266c2.983,0,9.021,0.5,11.643,1.889L40.295,158.297z"
           id="path92" /><path
           fill="#F78E1E"
           d="M53.443,148.838h4.583v54.574h-4.583V148.838z"
           id="path94" /><path
           fill="#F78E1E"
           d="M84.068,165.424c12.006,0,17.32,9.314,17.32,19.43c0,10.119-5.314,19.434-17.32,19.434     c-12.006,0-17.316-9.314-17.316-19.434C66.751,174.738,72.062,165.424,84.068,165.424z M84.068,200.354     c8.004,0,12.298-6.918,12.298-15.5c0-8.588-4.294-15.496-12.298-15.496s-12.295,6.908-12.295,15.496     C71.772,193.436,76.064,200.354,84.068,200.354z"
           id="path96" /><path
           fill="#F78E1E"
           d="M138.99,194.676c0,2.836,0,5.75,0.286,8.736h-4.439v-6.627h-0.144c-1.525,3.35-4.296,7.502-12.002,7.502     c-9.172,0-12.662-6.113-12.662-14.268v-23.719h4.583v22.557c0,6.979,2.476,11.496,8.799,11.496c8.368,0,10.99-7.348,10.99-13.533     v-20.52h4.589V194.676z"
           id="path98" /><path
           fill="#F78E1E"
           d="M179.852,203.412h-4.578v-5.9h-0.143c-2.479,4.738-6.264,6.775-11.574,6.775     c-10.185,0-15.28-8.451-15.28-19.434c0-11.277,4.368-19.43,15.28-19.43c7.277,0,10.919,5.316,11.574,7.127h0.143v-23.713h4.578     V203.412z M164.284,200.354c8.153,0,10.989-8.73,10.989-15.5c0-6.766-2.836-15.496-10.989-15.496     c-8.731,0-10.983,8.297-10.983,15.496C153.301,192.059,155.553,200.354,164.284,200.354z"
           id="path100" /><path
           fill="#F78E1E"
           d="M222.226,157.324l-6.627,3.928c-1.233-2.145-2.413-3.551-3.54-4.201     c-1.163-0.758-2.671-1.127-4.519-1.127c-2.264,0-4.141,0.65-5.643,1.93c-1.49,1.26-2.241,2.855-2.241,4.77     c0,2.641,1.961,4.773,5.889,6.383l5.393,2.211c4.398,1.77,7.611,3.945,9.638,6.508c2.038,2.557,3.051,5.699,3.051,9.404     c0,4.988-1.656,9.102-4.976,12.35c-3.338,3.271-7.486,4.91-12.438,4.91c-4.696,0-8.576-1.393-11.634-4.189     c-3.021-2.789-4.893-6.711-5.638-11.758l8.266-1.818c0.37,3.184,1.031,5.375,1.967,6.586c1.681,2.336,4.131,3.504,7.355,3.504     c2.55,0,4.666-0.846,6.347-2.557c1.681-1.699,2.515-3.855,2.515-6.479c0-1.049-0.137-2.008-0.435-2.885     c-0.292-0.875-0.745-1.686-1.371-2.412c-0.614-0.74-1.419-1.432-2.39-2.074c-0.99-0.639-2.152-1.246-3.504-1.838l-5.222-2.168     c-7.414-3.129-11.121-7.701-11.121-13.725c0-4.061,1.562-7.463,4.667-10.191c3.104-2.76,6.973-4.137,11.604-4.137     C213.847,148.248,218.721,151.275,222.226,157.324z"
           id="path102" /><path
           fill="#F78E1E"
           d="M230.772,155.078c0-1.377,0.506-2.564,1.507-3.57c1.008-1.008,2.219-1.508,3.612-1.508     c1.418,0,2.646,0.5,3.642,1.508c1.007,0.977,1.508,2.188,1.508,3.605c0,1.432-0.501,2.646-1.508,3.654     c-0.971,1.008-2.176,1.502-3.606,1.502c-1.424,0-2.64-0.494-3.647-1.502C231.278,157.76,230.772,156.525,230.772,155.078z      M239.855,169.273v34.139h-7.886v-34.139H239.855z"
           id="path104" /><path
           fill="#F78E1E"
           d="M249.844,169.273h7.885v3.158c1.514-1.584,2.808-2.662,3.886-3.223c1.145-0.584,2.581-0.877,4.315-0.877     c3.849,0,6.9,1.682,9.142,5.049c2.48-3.367,5.829-5.049,10.061-5.049c7.683,0,11.532,4.654,11.532,13.977v21.104h-7.927v-18.957     c0-3.273-0.399-5.586-1.186-6.939c-0.828-1.383-2.163-2.074-4.035-2.074c-2.17,0-3.754,0.824-4.75,2.457     c-0.988,1.639-1.484,4.266-1.484,7.879v17.635h-7.92v-18.857c0-6.078-1.753-9.113-5.251-9.113c-2.223,0-3.844,0.836-4.856,2.492     c-1.025,1.656-1.526,4.273-1.526,7.844v17.635h-7.885V169.273z"
           id="path106" /></g><path
         fill="none"
         stroke="#448AC9"
         stroke-width="0.906"
         stroke-miterlimit="10"
         d="M102.217,113.706"
         id="path108" /><path
         fill="none"
         stroke="#448AC9"
         stroke-width="0.906"
         stroke-miterlimit="10"
         d="M113.804,113.051"
         id="path110" /><path
         fill="none"
         stroke="#448AC9"
         stroke-width="0.906"
         stroke-miterlimit="10"
         d="M99.744,127.111"
         id="path112" /><g
         id="g114"><path
           fill="#F78E1E"
           d="M152.146,120.576c0,13.785-11.179,24.962-24.963,24.962c-13.787,0-24.965-11.177-24.965-24.962     c0-13.788,11.179-24.965,24.965-24.965C140.967,95.611,152.146,106.788,152.146,120.576z"
           id="path116" /><circle
           fill="#F78E1E"
           cx="99.742"
           cy="119.922"
           r="14.062"
           id="circle118" /><path
           fill="#F78E1E"
           d="M166.312,136.077c0,10.009-8.114,18.12-18.12,18.12H84.771c-10.008,0-18.12-8.111-18.12-18.12l0,0     c0-10.006,8.112-18.118,18.12-18.118h63.422C158.198,117.959,166.312,126.071,166.312,136.077L166.312,136.077z"
           id="path120" /></g><g
         id="g122"><g
           id="Ear1_3_"><g
             id="g125"><rect
               x="121.2"
               y="114.032"
               fill="#FFFFFF"
               width="1.995"
               height="3.91"
               id="rect127" /></g></g><g
           id="Ear2_3_"><g
             id="g130"><rect
               x="133.781"
               y="114.032"
               fill="#FFFFFF"
               width="2.369"
               height="3.91"
               id="rect132" /></g></g><g
           id="Neck_3_"><g
             id="g135"><rect
               x="125.947"
               y="121.016"
               fill="#FFFFFF"
               width="5.308"
               height="1.61"
               id="rect137" /></g></g><g
           id="Torso_3_"><g
             id="g140"><rect
               x="121.757"
               y="122.131"
               fill="#FFFFFF"
               width="13.965"
               height="17.854"
               id="rect142" /></g></g><g
           id="Leg1_3_"><g
             id="g145"><rect
               x="122.548"
               y="136.376"
               fill="#FFFFFF"
               width="4.75"
               height="15.241"
               id="rect147" /></g></g><g
           id="Foot2_3_"><g
             id="g150"><rect
               x="129.299"
               y="151.182"
               fill="#FFFFFF"
               width="6.424"
               height="3.631"
               id="rect152" /></g></g><g
           id="Hand1_3_"><g
             id="g155"><rect
               x="115.611"
               y="134.215"
               fill="#FFFFFF"
               width="4.749"
               height="2.188"
               id="rect157" /></g></g><g
           id="Hand2_3_"><g
             id="g160"><rect
               x="137.117"
               y="134.215"
               fill="#FFFFFF"
               width="4.752"
               height="2.188"
               id="rect162" /></g></g><g
           id="Foot1_4_"><g
             id="g165"><rect
               x="121.711"
               y="151.182"
               fill="#FFFFFF"
               width="6.425"
               height="3.631"
               id="rect167" /></g></g><g
           id="Leg2_3_"><g
             id="g170"><rect
               x="130.137"
               y="136.376"
               fill="#FFFFFF"
               width="4.748"
               height="15.778"
               id="rect172" /></g></g><g
           id="Shoulder1_3_"><g
             id="g175"><rect
               x="117.29"
               y="122.969"
               fill="#FFFFFF"
               width="5.904"
               height="4.749"
               id="rect177" /></g></g><g
           id="Shoulder2_3_"><g
             id="g180"><rect
               x="134.605"
               y="122.969"
               fill="#FFFFFF"
               width="5.028"
               height="4.749"
               id="rect182" /></g></g><g
           id="Arm1_3_"><g
             id="g185"><rect
               x="116.17"
               y="122.969"
               fill="#FFFFFF"
               width="3.631"
               height="11.87"
               id="rect187" /></g></g><g
           id="Arm2_3_"><g
             id="g190"><rect
               x="137.679"
               y="122.969"
               fill="#FFFFFF"
               width="3.631"
               height="11.87"
               id="rect192" /></g></g><g
           id="Rectangle_1_3_"><g
             id="g195"><rect
               x="122.873"
               y="111.516"
               fill="#FFFFFF"
               width="11.732"
               height="9.778"
               id="rect197" /></g></g></g></g></g><g
     id="TCP_x2F_IP_Comm"
     display="none"><g
       display="inline"
       id="g200"><g
         id="g202"><path
           fill="#F78E1E"
           d="M289.543,90.329c0,1.546-1.725,2.8-3.853,2.8H206.92c-2.129,0-3.853-1.254-3.853-2.8V55.793     c0-1.546,1.724-2.8,3.853-2.8h78.771c2.128,0,3.853,1.254,3.853,2.8V90.329z"
           id="path204" /><polyline
           fill="#F78E1E"
           points="232.778,30.456 288.404,51.579 285.545,59.111 235.43,40.081    "
           id="polyline206" /><path
           fill="#F78E1E"
           d="M291.41,59.06c0,0.604-0.489,1.095-1.094,1.095h-5.61c-0.604,0-1.095-0.491-1.095-1.095v-6.705     c0-0.604,0.49-1.094,1.095-1.094h5.61c0.604,0,1.094,0.49,1.094,1.094V59.06z"
           id="path208" /><rect
           x="283.885"
           y="53.176"
           fill="#F78E1E"
           width="7.525"
           height="8.21"
           id="rect210" /><rect
           x="203.067"
           y="60.838"
           fill="#F78E1E"
           width="32.839"
           height="35.757"
           id="rect212" /></g><g
         id="g214"><path
           fill="#F78E1E"
           d="M10.457,263.279c0,1.545,1.725,2.801,3.853,2.801h78.771c2.128,0,3.853-1.256,3.853-2.801v-34.537     c0-1.545-1.725-2.801-3.853-2.801H14.31c-2.128,0-3.853,1.256-3.853,2.801V263.279z"
           id="path216" /><polyline
           fill="#F78E1E"
           points="67.223,203.406 11.596,224.529 14.455,232.061 64.57,213.031    "
           id="polyline218" /><path
           fill="#F78E1E"
           d="M8.59,232.01c0,0.605,0.489,1.094,1.095,1.094h5.61c0.604,0,1.094-0.488,1.094-1.094v-6.705     c0-0.605-0.489-1.094-1.094-1.094h-5.61c-0.605,0-1.095,0.488-1.095,1.094V232.01z"
           id="path220" /><rect
           x="8.59"
           y="226.125"
           fill="#F78E1E"
           width="7.525"
           height="8.211"
           id="rect222" /><rect
           x="64.095"
           y="233.789"
           fill="#F78E1E"
           width="32.839"
           height="35.756"
           id="rect224" /></g><path
         fill="none"
         stroke="#F78E1E"
         stroke-width="10.9462"
         stroke-miterlimit="10"
         d="M201.607,76.346"
         id="path226" /><path
         fill="none"
         stroke="#F78E1E"
         stroke-width="14.23"
         stroke-miterlimit="10"
         d="M215.473,75.616    c0,0-131.719-12.406-120.772,34.298c10.945,46.704,160.544,32.474,156.166,94.868C246.769,263.17,90.749,242.15,88.497,249.66"
         id="path228" /></g></g><g
     id="PropShop"
     display="none"><text
       transform="matrix(1 0 0 1 37.3086 168.6973)"
       display="inline"
       fill="#F78E1E"
       font-family="'Roboto-Medium'"
       font-size="50.3699"
       id="text231">Pr    p Shop</text>
<text
       transform="matrix(0 -1 1 0 30.96 175.6445)"
       display="inline"
       fill="#F78E1E"
       font-family="'Lobster1.3'"
       font-size="32.0536"
       id="text233">The</text>
<g
       display="inline"
       id="g235"><path
         fill="none"
         stroke="#F78E1E"
         stroke-width="1.1756"
         stroke-linecap="round"
         stroke-miterlimit="10"
         d="M110.669,149.905    c-0.245,0.134,3.835,12.062,3.835,12.062c1.271,4.312-0.49,5.477-0.49,5.477c-1.291,0.59-3.998,0.76-3.998,0.76    c-1.053-0.026-3.042-1.204-3.042-1.204c-0.387,1.806-1.859,1.958-1.859,1.958c-3.652,1.122-4.804-0.58-4.804-0.58    c-5.303-5.903-7.302-11.246-7.302-11.246c-2.338-6.209-0.86-8.243-0.86-8.243c0.401-1.723,4.525-2.06,4.525-2.06    c1.833,0.051,2.497-1.06,2.497-1.06c0.45-1.937,1.587-3.071,1.587-3.071c0.896-1.304,5.005-1.729,5.005-1.729    c1.537-0.103,1.899-0.741,1.899-0.741c1.497-3.235,4.496-3.516,4.496-3.516c2.451-0.662,5.517,1.114,5.517,1.114    c0.322,0.137,1.431,0.294,1.948-0.452c1.404-2.027,4.114-2.52,4.114-2.52s4.53-0.628,6.982,2.627c0,0,2.441,2.212,2.862,8.236    c0,0,0.307,5.133,0.457,6.705c0,0,0.945,3.834,0.905,4.919c0,0,0.355,2.781-2.212,5.678c-0.176,0.201-0.371,0.404-0.58,0.607    c0,0-2.905,2.089-7.073,0.406c0,0-0.662-0.031-0.793,0.232c0,0-0.851,1.239-2.528,2.351c0,0-2.364,1.773-5.987,0.615    c0,0-0.04-0.1-0.384,0.511c0,0-0.471,0.372,0.081,1.587c0,0,0.304,1.174,2.067,1.682c0,0,2.543,1.452,4.017,1.658    c0,0,0.127,0.063,0.361,0.143c0.702,0.24,2.383,0.613,4.562-0.215c0,0,2.871-0.978,4.151-2.8c0,0,1.368-1.985,1.977-4.368    c0.608-2.388,0.149-0.688,0.208-0.852c0.062-0.158,0.358-1.416,0.139-1.487"
         id="path237" /><path
         fill="none"
         stroke="#F78E1E"
         stroke-width="1.5675"
         stroke-linecap="round"
         stroke-miterlimit="10"
         d="M102.109,153.932    c0,0,2.085,4.917,2.823,6.237c0,0,2.396,5.211,2.074,6.707"
         id="path239" /><path
         fill="none"
         stroke="#F78E1E"
         stroke-width="1.5675"
         stroke-linecap="round"
         stroke-linejoin="round"
         stroke-miterlimit="10"
         d="    M120.221,145.132l0.012,0.348c0,0,1.041,5.249,1.148,5.592c0,0,0.379,1.65,0.867,3.759c1.156,4.998,2.339,9.755,2.081,8.857"
         id="path241" /><path
         fill="none"
         stroke="#F78E1E"
         stroke-width="0.7838"
         stroke-miterlimit="10"
         d="M115.542,169.073    c0,0,1.957-0.236,3.129,0.021c0,0,2.215,0.49,3.127,1.223c0.808,0.661,0.188,2.35,0.245,2.15"
         id="path243" /></g></g><g
     id="Plugins"
     display="none"><image
       sodipodi:absref="/home/nkoenig/Downloads/Screen Shot 2014-03-05 at 1.07.49 PM.png"
       xlink:href="Screen Shot 2014-03-05 at 1.07.49 PM.png"
       id="image246"
       transform="matrix(0.52 0 0 0.52 -331 -140.5)"
       height="366"
       width="350"
       overflow="visible"
       display="inline" /><image
       sodipodi:absref="/home/nkoenig/Downloads/Screen Shot 2014-03-05 at 1.08.02 PM.png"
       xlink:href="Screen Shot 2014-03-05 at 1.08.02 PM.png"
       id="image248"
       transform="matrix(0.4448 0 0 0.4448 -61.5 -82)"
       height="426"
       width="317"
       overflow="visible"
       display="inline" /><g
       display="inline"
       id="g250"><path
         fill="none"
         stroke="#F78E1E"
         stroke-miterlimit="10"
         d="M11.083,304.667"
         id="path252" /></g><path
       display="inline"
       fill="#F78E1E"
       d="M269.122,141.507l0.286,32.333c0,0,3.318,10.672,15.329,3.022   c12.012-7.649,17.513-8.224,20.486,9.78c0,0-0.457,10.097-6.269,12.906c-3.048,1.475-7.715,0.461-14.244-4.02   c0,0-10.738-8.932-15.75-0.273l-0.585,0.916l-0.382,34.334c0,0-41.337,3.274-38.322-6.721c0,0-0.161-5.168,2.51-7.664   c2.67-2.496,6.844-7.655,6.183-11.49c0,0-1.819-9.67-13.15-11.186c-11.331-1.517-14.009,6.146-14.009,6.146   s-3.174,4.995,1.815,12.503c4.989,7.507,5.153,9.173,5.153,9.173s1.821,9.003-14.514,9.646s-22.834-0.365-22.834-0.365   l-0.292-28.336c0,0-3.146-14.67-15.154-8.354s-7.343,6.156-14.843,5.812c-7.499-0.344-7.813-13.012-7.813-13.012   s1.362-19.832,15.687-13.479c0,0,8.989,7.514,11.823,6.684c0.455-0.132,0.962-0.176,1.502-0.207   c2.819-0.162,6.54-0.008,8.514-10.777c2.352-12.83-2.631-25.171-0.13-26l0.669-1.332c0,0,22.167-0.469,32-0.122   s6.98,13.343,0.474,18.167c-6.506,4.825,0.314,13.168,0.314,13.168s7.492,5.178,13.827,4.854   c6.333-0.325,11.504-3.068,10.683-11.819c0,0-0.69-2.729-2.325-4.835c-3.788-4.885-9.651-12.392-2.309-17.504   c0,0,4.502-1.827,5.918-1.575c1.417,0.252,29.918-0.208,29.918-0.208"
       id="path254" /><g
       display="inline"
       id="g256"><path
         fill="#F78E1E"
         d="M120.166,98.25c0,0,24.5,1.75,8.75,25.75c0,0-4,11.25,10.25,11.25s28-0.25,28-0.25s3.625,0.375,4.5,4.625    s0.125,32.125,0.125,32.125s-1,5.875-5.625,2.375c0,0-6.125-6.75-16.375-5.125s-19,23.125-1.625,34.375    c0,0,9.125,3.375,17.25-4.375c0,0,4.75-3.375,6,1s0.625,32.5,0.625,32.5s-1.375,6.125-5.5,5.875S120,238.416,120,238.416    L120.166,98.25z"
         id="path258" /><path
         fill="#F78E1E"
         d="M120.365,98.25c0,0-24.5,1.75-8.75,25.75c0,0,4,11.25-10.25,11.25s-28-0.25-28-0.25    s-3.625,0.375-4.5,4.625S68.74,171.75,68.74,171.75s1,5.875,5.625,2.375c0,0,6.125-6.75,16.375-5.125s19,23.125,1.625,34.375    c0,0-9.125,3.375-17.25-4.375c0,0-4.75-3.375-6,1s-0.625,32.5-0.625,32.5s1.375,6.125,5.5,5.875s46.541,0.041,46.541,0.041    L120.365,98.25z"
         id="path260" /><path
         fill="#F78E1E"
         d="M120,238.416l0.166-140.167c0,0,24.5,1.75,8.75,25.75"
         id="path262" /></g></g><g
     id="g3365"><path
       sodipodi:nodetypes="ccccc"
       inkscape:connector-curvature="0"
       id="polygon61-0"
       d="m 112.44539,32.636 10.535,-2.608 89.03439,214.49676 -9.695,4.053 z"
       style="fill:#f78e1e;fill-opacity:1" /><path
       stroke-miterlimit="10"
       d="m 121.765,31.744 c 0,0 -23.757,-10.752 -62.855,34.466 0,0 -13.26,13.259 -53.718,9.52 l 22.1,76.837 c 0,0 41.818,12.581 64.258,-23.118 22.438,-35.7 46.578,-37.399 46.578,-37.399"
       id="path35"
       inkscape:connector-curvature="0"
       style="fill:none;stroke:#f78e1e;stroke-width:4.07989979;stroke-miterlimit:10" /><polyline
       transform="translate(0,-48)"
       points="12.161,148.719 31.88,139.539 26.44,126.279 5.871,125.259 12.501,147.699    "
       id="polyline37"
       style="fill:#f78e1e" /><rect
       x="-12.682721"
       y="93.65123"
       transform="matrix(0.90704989,-0.42102316,0.42102316,0.90704989,0,0)"
       width="33.486156"
       height="30.118343"
       id="rect39"
       style="fill:#f78e1e" /><polyline
       transform="translate(0,-48)"
       points="97.981,167.912 94.946,169.32 82.8,174.959 81.687,172.562 71.62,150.87 101.996,136.771      110.286,154.633    "
       id="polyline41"
       style="fill:#f78e1e" /><path
       d="M 114.011,114.656"
       id="path43"
       inkscape:connector-curvature="0"
       style="fill:#f78e1e" /><rect
       x="54.920059"
       y="93.359505"
       transform="matrix(0.90704989,-0.42102316,0.42102316,0.90704989,0,0)"
       width="33.487156"
       height="30.117342"
       id="rect45"
       style="fill:#f78e1e" /><polyline
       transform="translate(0,-48)"
       points="18.399,173.989 25.153,170.854 41.818,163.12 54.498,190.439 34.668,199.645 28.991,201.587         "
       id="polyline47"
       style="fill:#f78e1e" /><path
       d="M 106.181,132.18"
       id="path49"
       inkscape:connector-curvature="0"
       style="fill:#f78e1e" /><polyline
       transform="translate(0,-48)"
       points="100.428,167.836 99.91,166.725 51.99,189.058 58.261,202.515 83.143,190.918    "
       id="polyline51"
       style="fill:#f78e1e" /><path
       d="M 46.291,50.002"
       id="path53"
       inkscape:connector-curvature="0"
       style="fill:#f78e1e" /><polyline
       transform="translate(0,-48)"
       points="82.036,93.64 90.046,110.898 58.077,125.737 54.743,118.555    "
       id="polyline55"
       style="fill:#f78e1e" /><path
       d="M 77.366,35.579"
       id="path57"
       inkscape:connector-curvature="0"
       style="fill:#f78e1e" /><path
       stroke-miterlimit="10"
       d="m 178.235,31.744 c 0,0 23.756,-10.752 62.854,34.466 0,0 13.26,13.259 53.719,9.52 l -22.1,76.837 c 0,0 -41.818,12.581 -64.258,-23.118 C 186.012,93.749 161.873,92.05 161.873,92.05"
       id="path63"
       inkscape:connector-curvature="0"
       style="fill:none;stroke:#f78e1e;stroke-width:4.07989979;stroke-miterlimit:10" /><polyline
       transform="translate(0,-48)"
       points="287.839,148.719 268.119,139.539 273.56,126.279 294.128,125.259 287.498,147.699    "
       id="polyline65"
       style="fill:#f78e1e" /><rect
       x="-284.80667"
       y="2.5211215"
       transform="matrix(-0.90704989,-0.42102316,0.42102316,-0.90704989,0,0)"
       width="33.487156"
       height="30.118343"
       id="rect67"
       style="fill:#f78e1e" /><polyline
       transform="translate(0,-48)"
       points="202.018,167.912 205.054,169.32 217.2,174.959 218.312,172.562 228.381,150.87 198.004,136.771      189.714,154.633    "
       id="polyline69"
       style="fill:#f78e1e" /><path
       d="M 185.989,114.656"
       id="path71"
       inkscape:connector-curvature="0"
       style="fill:#f78e1e" /><rect
       x="-217.19836"
       y="2.8164794"
       transform="matrix(-0.90704989,-0.42102316,0.42102316,-0.90704989,0,0)"
       width="33.487156"
       height="30.117342"
       id="rect73"
       style="fill:#f78e1e" /><polyline
       transform="translate(0,-48)"
       points="281.6,173.989 274.847,170.854 258.181,163.12 245.501,190.439 265.332,199.645      271.009,201.587    "
       id="polyline75"
       style="fill:#f78e1e" /><path
       d="M 193.819,132.18"
       id="path77"
       inkscape:connector-curvature="0"
       style="fill:#f78e1e" /><polyline
       transform="translate(0,-48)"
       points="199.571,167.836 200.091,166.725 248.01,189.058 241.739,202.515 216.857,190.918    "
       id="polyline79"
       style="fill:#f78e1e" /><path
       d="M 253.708,50.002"
       id="path81"
       inkscape:connector-curvature="0"
       style="fill:#f78e1e" /><polyline
       transform="translate(0,-48)"
       points="217.964,93.64 209.953,110.898 241.923,125.737 245.256,118.555    "
       id="polyline83"
       style="fill:#f78e1e" /><path
       d="M 222.633,35.579"
       id="path85"
       inkscape:connector-curvature="0"
       style="fill:#f78e1e" /><path
       sodipodi:nodetypes="ccccc"
       inkscape:connector-curvature="0"
       id="polygon61-0-6"
       d="m 188.01478,32.636 -10.535,-2.608 -89.03439,214.49676 9.695,4.053 z"
       style="fill:#f78e1e;fill-opacity:1" /></g></svg>