<?xml version="1.0" encoding="UTF-8" standalone="no"?>
<!-- Generator: Adobe Illustrator 16.0.4, SVG Export Plug-In . SVG Version: 6.00 Build 0)  -->

<svg
   xmlns:dc="http://purl.org/dc/elements/1.1/"
   xmlns:cc="http://creativecommons.org/ns#"
   xmlns:rdf="http://www.w3.org/1999/02/22-rdf-syntax-ns#"
   xmlns:svg="http://www.w3.org/2000/svg"
   xmlns="http://www.w3.org/2000/svg"
   xmlns:xlink="http://www.w3.org/1999/xlink"
   xmlns:sodipodi="http://sodipodi.sourceforge.net/DTD/sodipodi-0.dtd"
   xmlns:inkscape="http://www.inkscape.org/namespaces/inkscape"
   version="1.1"
   x="0px"
   y="0px"
   width="300px"
   height="300px"
   viewBox="0 0 300 300"
   enable-background="new 0 0 300 300"
   xml:space="preserve"
   id="svg2"
   inkscape:version="0.48.4 r9939"
   sodipodi:docname="cloudsim_icon.svg"><metadata
     id="metadata268"><rdf:RDF><cc:Work
         rdf:about=""><dc:format>image/svg+xml</dc:format><dc:type
           rdf:resource="http://purl.org/dc/dcmitype/StillImage" /><dc:title></dc:title></cc:Work></rdf:RDF></metadata><defs
     id="defs266" /><sodipodi:namedview
     pagecolor="#ffffff"
     bordercolor="#666666"
     borderopacity="1"
     objecttolerance="10"
     gridtolerance="10"
     guidetolerance="10"
     inkscape:pageopacity="0"
     inkscape:pageshadow="2"
     inkscape:window-width="1504"
     inkscape:window-height="862"
     id="namedview264"
     showgrid="false"
     inkscape:zoom="0.78666667"
     inkscape:cx="-303.81356"
     inkscape:cy="150"
     inkscape:window-x="2779"
     inkscape:window-y="168"
     inkscape:window-maximized="0"
     inkscape:current-layer="svg2" /><g
     id="mail"
     display="none"><polygon
       display="inline"
       fill="#F78E1E"
       points="107.027,152.418 7.412,75.404 7.412,229.596  "
       id="polygon5" /><polygon
       display="inline"
       fill="#F78E1E"
       points="189.912,152.418 289.527,75.404 289.527,229.596  "
       id="polygon7" /><polygon
       display="inline"
       fill="#F78E1E"
       points="7.496,58.427 149.465,168.573 289.607,58.427  "
       id="polygon9" /><polygon
       display="inline"
       fill="#F78E1E"
       points="185.281,161.802 150.702,188.354 114.245,160.721 7.808,241.573 290.296,241.573     "
       id="polygon11" /></g><g
     id="Command_Line"
     display="none"><g
       display="inline"
       id="g14"><rect
         x="21.5"
         y="37.5"
         fill="#FFFFFF"
         width="262"
         height="223.5"
         id="rect16" /><path
         fill="#F78E1E"
         d="M273.5,47.5V251h-242V47.5H273.5 M293.5,27.5h-282V271h282V27.5L293.5,27.5z"
         id="path18" /></g><g
       display="inline"
       id="g20"><polygon
         fill="#F78E1E"
         points="135,112 94.5,112 94.5,120.5 135,120.5 135,112   "
         id="polygon22" /></g><rect
       x="53"
       y="59"
       display="inline"
       fill="none"
       width="89.604"
       height="69.5"
       id="rect24" /><text
       transform="matrix(1 0 0 1 53 109.9194)"
       display="inline"
       fill="#F78E1E"
       stroke="#F78E1E"
       stroke-width="8"
       stroke-miterlimit="10"
       font-family="'OpenSans'"
       font-size="67"
       id="text26">&gt;</text>
</g><g
     id="Flags"
     display="none"><g
       display="inline"
       id="g29"><g
         id="g31"><polygon
           fill="#F78E1E"
           points="181.083,217.919 171.387,221.972 112.075,80.636 122.61,78.028    "
           id="polygon33" /><path
           fill="none"
           stroke="#F78E1E"
           stroke-width="4.0799"
           stroke-miterlimit="10"
           d="M121.765,79.744     c0,0-23.757-10.752-62.855,34.466c0,0-13.26,13.259-53.718,9.52l22.1,76.837c0,0,41.818,12.581,64.258-23.118     c22.438-35.7,46.578-37.399,46.578-37.399"
           id="path35" /><polyline
           fill="#F78E1E"
           points="12.161,148.719 31.88,139.539 26.44,126.279 5.871,125.259 12.501,147.699    "
           id="polyline37" /><rect
           x="32.716"
           y="129.841"
           transform="matrix(0.907 -0.421 0.421 0.907 -56.411 34.2937)"
           fill="#F78E1E"
           width="33.488"
           height="30.12"
           id="rect39" /><polyline
           fill="#F78E1E"
           points="97.981,167.912 94.946,169.32 82.8,174.959 81.687,172.562 71.62,150.87 101.996,136.771      110.286,154.633    "
           id="polyline41" /><path
           fill="#F78E1E"
           d="M114.011,162.656"
           id="path43" /><rect
           x="93.913"
           y="101.112"
           transform="matrix(0.907 -0.421 0.421 0.907 -38.6255 57.3879)"
           fill="#F78E1E"
           width="33.489"
           height="30.119"
           id="rect45" /><polyline
           fill="#F78E1E"
           points="18.399,173.989 25.153,170.854 41.818,163.12 54.498,190.439 34.668,199.645 28.991,201.587         "
           id="polyline47" /><path
           fill="#F78E1E"
           d="M106.181,180.18"
           id="path49" /><polyline
           fill="#F78E1E"
           points="100.428,167.836 99.91,166.725 51.99,189.058 58.261,202.515 83.143,190.918    "
           id="polyline51" /><path
           fill="#F78E1E"
           d="M46.291,98.002"
           id="path53" /><polyline
           fill="#F78E1E"
           points="82.036,93.64 90.046,110.898 58.077,125.737 54.743,118.555    "
           id="polyline55" /><path
           fill="#F78E1E"
           d="M77.366,83.579"
           id="path57" /></g><g
         id="g59"><polygon
           fill="#F78E1E"
           points="118.917,217.919 128.612,221.972 187.925,80.636 177.39,78.028    "
           id="polygon61" /><path
           fill="none"
           stroke="#F78E1E"
           stroke-width="4.0799"
           stroke-miterlimit="10"
           d="M178.235,79.744     c0,0,23.756-10.752,62.854,34.466c0,0,13.26,13.259,53.719,9.52l-22.1,76.837c0,0-41.818,12.581-64.258-23.118     c-22.438-35.7-46.577-37.399-46.577-37.399"
           id="path63" /><polyline
           fill="#F78E1E"
           points="287.839,148.719 268.119,139.539 273.56,126.279 294.128,125.259 287.498,147.699    "
           id="polyline65" /><rect
           x="233.795"
           y="129.841"
           transform="matrix(-0.907 -0.421 0.421 -0.907 416.7843 381.8169)"
           fill="#F78E1E"
           width="33.489"
           height="30.12"
           id="rect67" /><polyline
           fill="#F78E1E"
           points="202.018,167.912 205.054,169.32 217.2,174.959 218.312,172.562 228.381,150.87 198.004,136.771      189.714,154.633    "
           id="polyline69" /><path
           fill="#F78E1E"
           d="M185.989,162.656"
           id="path71" /><rect
           x="172.598"
           y="101.112"
           transform="matrix(-0.907 -0.421 0.421 -0.907 312.1738 301.2632)"
           fill="#F78E1E"
           width="33.489"
           height="30.119"
           id="rect73" /><polyline
           fill="#F78E1E"
           points="281.6,173.989 274.847,170.854 258.181,163.12 245.501,190.439 265.332,199.645      271.009,201.587    "
           id="polyline75" /><path
           fill="#F78E1E"
           d="M193.819,180.18"
           id="path77" /><polyline
           fill="#F78E1E"
           points="199.571,167.836 200.091,166.725 248.01,189.058 241.739,202.515 216.857,190.918    "
           id="polyline79" /><path
           fill="#F78E1E"
           d="M253.708,98.002"
           id="path81" /><polyline
           fill="#F78E1E"
           points="217.964,93.64 209.953,110.898 241.923,125.737 245.256,118.555    "
           id="polyline83" /><path
           fill="#F78E1E"
           d="M222.633,83.579"
           id="path85" /></g></g></g><path
     stroke-miterlimit="10"
     d="M 150,150"
     id="path108"
     inkscape:connector-curvature="0"
     style="fill:none;stroke:#448ac9;stroke-width:2.54696965;stroke-miterlimit:10" /><path
     stroke-miterlimit="10"
     d="M 150,150"
     id="path110"
     inkscape:connector-curvature="0"
     style="fill:none;stroke:#448ac9;stroke-width:2.54696965;stroke-miterlimit:10" /><path
     stroke-miterlimit="10"
     d="M 150,150"
     id="path112"
     inkscape:connector-curvature="0"
     style="fill:none;stroke:#448ac9;stroke-width:2.54696965;stroke-miterlimit:10" /><g
     id="g122"
     transform="matrix(6.5166754,0,0,6.5166754,-688.95681,-717.78984)"
     style="fill:#f78e1e;fill-opacity:1"><g
       id="Ear1_3_"
       style="fill:#f78e1e;fill-opacity:1"><g
         id="g125"
         style="fill:#f78e1e;fill-opacity:1"><rect
           x="121.2"
           y="114.032"
           width="1.995"
           height="3.9100001"
           id="rect127"
           style="fill:#f78e1e;fill-opacity:1" /></g></g><g
       id="Ear2_3_"
       style="fill:#f78e1e;fill-opacity:1"><g
         id="g130"
         style="fill:#f78e1e;fill-opacity:1"><rect
           x="133.78101"
           y="114.032"
           width="2.369"
           height="3.9100001"
           id="rect132"
           style="fill:#f78e1e;fill-opacity:1" /></g></g><g
       id="Neck_3_"
       style="fill:#f78e1e;fill-opacity:1"><g
         id="g135"
         style="fill:#f78e1e;fill-opacity:1"><rect
           x="125.947"
           y="121.016"
           width="5.3080001"
           height="1.61"
           id="rect137"
           style="fill:#f78e1e;fill-opacity:1" /></g></g><g
       id="Torso_3_"
       style="fill:#f78e1e;fill-opacity:1"><g
         id="g140"
         style="fill:#f78e1e;fill-opacity:1"><rect
           x="121.757"
           y="122.131"
           width="13.965"
           height="17.854"
           id="rect142"
           style="fill:#f78e1e;fill-opacity:1" /></g></g><g
       id="Leg1_3_"
       style="fill:#f78e1e;fill-opacity:1"><g
         id="g145"
         style="fill:#f78e1e;fill-opacity:1"><rect
           x="122.548"
           y="136.37601"
           width="4.75"
           height="15.241"
           id="rect147"
           style="fill:#f78e1e;fill-opacity:1" /></g></g><g
       id="Foot2_3_"
       style="fill:#f78e1e;fill-opacity:1"><g
         id="g150"
         style="fill:#f78e1e;fill-opacity:1"><rect
           x="129.299"
           y="151.18201"
           width="6.4239998"
           height="3.631"
           id="rect152"
           style="fill:#f78e1e;fill-opacity:1" /></g></g><g
       id="Hand1_3_"
       style="fill:#f78e1e;fill-opacity:1"><g
         id="g155"
         style="fill:#f78e1e;fill-opacity:1"><rect
           x="115.611"
           y="134.215"
           width="4.7490001"
           height="2.188"
           id="rect157"
           style="fill:#f78e1e;fill-opacity:1" /></g></g><g
       id="Hand2_3_"
       style="fill:#f78e1e;fill-opacity:1"><g
         id="g160"
         style="fill:#f78e1e;fill-opacity:1"><rect
           x="137.117"
           y="134.215"
           width="4.7519999"
           height="2.188"
           id="rect162"
           style="fill:#f78e1e;fill-opacity:1" /></g></g><g
       id="Foot1_4_"
       style="fill:#f78e1e;fill-opacity:1"><g
         id="g165"
         style="fill:#f78e1e;fill-opacity:1"><rect
           x="121.711"
           y="151.18201"
           width="6.4250002"
           height="3.631"
           id="rect167"
           style="fill:#f78e1e;fill-opacity:1" /></g></g><g
       id="Leg2_3_"
       style="fill:#f78e1e;fill-opacity:1"><g
         id="g170"
         style="fill:#f78e1e;fill-opacity:1"><rect
           x="130.13699"
           y="136.37601"
           width="4.7480001"
           height="15.778"
           id="rect172"
           style="fill:#f78e1e;fill-opacity:1" /></g></g><g
       id="Shoulder1_3_"
       style="fill:#f78e1e;fill-opacity:1"><g
         id="g175"
         style="fill:#f78e1e;fill-opacity:1"><rect
           x="117.29"
           y="122.969"
           width="5.9039998"
           height="4.7490001"
           id="rect177"
           style="fill:#f78e1e;fill-opacity:1" /></g></g><g
       id="Shoulder2_3_"
       style="fill:#f78e1e;fill-opacity:1"><g
         id="g180"
         style="fill:#f78e1e;fill-opacity:1"><rect
           x="134.605"
           y="122.969"
           width="5.0279999"
           height="4.7490001"
           id="rect182"
           style="fill:#f78e1e;fill-opacity:1" /></g></g><g
       id="Arm1_3_"
       style="fill:#f78e1e;fill-opacity:1"><g
         id="g185"
         style="fill:#f78e1e;fill-opacity:1"><rect
           x="116.17"
           y="122.969"
           width="3.631"
           height="11.87"
           id="rect187"
           style="fill:#f78e1e;fill-opacity:1" /></g></g><g
       id="Arm2_3_"
       style="fill:#f78e1e;fill-opacity:1"><g
         id="g190"
         style="fill:#f78e1e;fill-opacity:1"><rect
           x="137.679"
           y="122.969"
           width="3.631"
           height="11.87"
           id="rect192"
           style="fill:#f78e1e;fill-opacity:1" /></g></g><g
       id="Rectangle_1_3_"
       style="fill:#f78e1e;fill-opacity:1"><g
         id="g195"
         style="fill:#f78e1e;fill-opacity:1"><rect
           x="122.873"
           y="111.516"
           width="11.732"
           height="9.7779999"
           id="rect197"
           style="fill:#f78e1e;fill-opacity:1" /></g></g></g><g
     id="TCP_x2F_IP_Comm"
     display="none"><g
       display="inline"
       id="g200"><g
         id="g202"><path
           fill="#F78E1E"
           d="M289.543,90.329c0,1.546-1.725,2.8-3.853,2.8H206.92c-2.129,0-3.853-1.254-3.853-2.8V55.793     c0-1.546,1.724-2.8,3.853-2.8h78.771c2.128,0,3.853,1.254,3.853,2.8V90.329z"
           id="path204" /><polyline
           fill="#F78E1E"
           points="232.778,30.456 288.404,51.579 285.545,59.111 235.43,40.081    "
           id="polyline206" /><path
           fill="#F78E1E"
           d="M291.41,59.06c0,0.604-0.489,1.095-1.094,1.095h-5.61c-0.604,0-1.095-0.491-1.095-1.095v-6.705     c0-0.604,0.49-1.094,1.095-1.094h5.61c0.604,0,1.094,0.49,1.094,1.094V59.06z"
           id="path208" /><rect
           x="283.885"
           y="53.176"
           fill="#F78E1E"
           width="7.525"
           height="8.21"
           id="rect210" /><rect
           x="203.067"
           y="60.838"
           fill="#F78E1E"
           width="32.839"
           height="35.757"
           id="rect212" /></g><g
         id="g214"><path
           fill="#F78E1E"
           d="M10.457,263.279c0,1.545,1.725,2.801,3.853,2.801h78.771c2.128,0,3.853-1.256,3.853-2.801v-34.537     c0-1.545-1.725-2.801-3.853-2.801H14.31c-2.128,0-3.853,1.256-3.853,2.801V263.279z"
           id="path216" /><polyline
           fill="#F78E1E"
           points="67.223,203.406 11.596,224.529 14.455,232.061 64.57,213.031    "
           id="polyline218" /><path
           fill="#F78E1E"
           d="M8.59,232.01c0,0.605,0.489,1.094,1.095,1.094h5.61c0.604,0,1.094-0.488,1.094-1.094v-6.705     c0-0.605-0.489-1.094-1.094-1.094h-5.61c-0.605,0-1.095,0.488-1.095,1.094V232.01z"
           id="path220" /><rect
           x="8.59"
           y="226.125"
           fill="#F78E1E"
           width="7.525"
           height="8.211"
           id="rect222" /><rect
           x="64.095"
           y="233.789"
           fill="#F78E1E"
           width="32.839"
           height="35.756"
           id="rect224" /></g><path
         fill="none"
         stroke="#F78E1E"
         stroke-width="10.9462"
         stroke-miterlimit="10"
         d="M201.607,76.346"
         id="path226" /><path
         fill="none"
         stroke="#F78E1E"
         stroke-width="14.23"
         stroke-miterlimit="10"
         d="M215.473,75.616    c0,0-131.719-12.406-120.772,34.298c10.945,46.704,160.544,32.474,156.166,94.868C246.769,263.17,90.749,242.15,88.497,249.66"
         id="path228" /></g></g><g
     id="PropShop"
     display="none"><text
       transform="matrix(1 0 0 1 37.3086 168.6973)"
       display="inline"
       fill="#F78E1E"
       font-family="'Roboto-Medium'"
       font-size="50.3699"
       id="text231">Pr    p Shop</text>
<text
       transform="matrix(0 -1 1 0 30.96 175.6445)"
       display="inline"
       fill="#F78E1E"
       font-family="'Lobster1.3'"
       font-size="32.0536"
       id="text233">The</text>
<g
       display="inline"
       id="g235"><path
         fill="none"
         stroke="#F78E1E"
         stroke-width="1.1756"
         stroke-linecap="round"
         stroke-miterlimit="10"
         d="M110.669,149.905    c-0.245,0.134,3.835,12.062,3.835,12.062c1.271,4.312-0.49,5.477-0.49,5.477c-1.291,0.59-3.998,0.76-3.998,0.76    c-1.053-0.026-3.042-1.204-3.042-1.204c-0.387,1.806-1.859,1.958-1.859,1.958c-3.652,1.122-4.804-0.58-4.804-0.58    c-5.303-5.903-7.302-11.246-7.302-11.246c-2.338-6.209-0.86-8.243-0.86-8.243c0.401-1.723,4.525-2.06,4.525-2.06    c1.833,0.051,2.497-1.06,2.497-1.06c0.45-1.937,1.587-3.071,1.587-3.071c0.896-1.304,5.005-1.729,5.005-1.729    c1.537-0.103,1.899-0.741,1.899-0.741c1.497-3.235,4.496-3.516,4.496-3.516c2.451-0.662,5.517,1.114,5.517,1.114    c0.322,0.137,1.431,0.294,1.948-0.452c1.404-2.027,4.114-2.52,4.114-2.52s4.53-0.628,6.982,2.627c0,0,2.441,2.212,2.862,8.236    c0,0,0.307,5.133,0.457,6.705c0,0,0.945,3.834,0.905,4.919c0,0,0.355,2.781-2.212,5.678c-0.176,0.201-0.371,0.404-0.58,0.607    c0,0-2.905,2.089-7.073,0.406c0,0-0.662-0.031-0.793,0.232c0,0-0.851,1.239-2.528,2.351c0,0-2.364,1.773-5.987,0.615    c0,0-0.04-0.1-0.384,0.511c0,0-0.471,0.372,0.081,1.587c0,0,0.304,1.174,2.067,1.682c0,0,2.543,1.452,4.017,1.658    c0,0,0.127,0.063,0.361,0.143c0.702,0.24,2.383,0.613,4.562-0.215c0,0,2.871-0.978,4.151-2.8c0,0,1.368-1.985,1.977-4.368    c0.608-2.388,0.149-0.688,0.208-0.852c0.062-0.158,0.358-1.416,0.139-1.487"
         id="path237" /><path
         fill="none"
         stroke="#F78E1E"
         stroke-width="1.5675"
         stroke-linecap="round"
         stroke-miterlimit="10"
         d="M102.109,153.932    c0,0,2.085,4.917,2.823,6.237c0,0,2.396,5.211,2.074,6.707"
         id="path239" /><path
         fill="none"
         stroke="#F78E1E"
         stroke-width="1.5675"
         stroke-linecap="round"
         stroke-linejoin="round"
         stroke-miterlimit="10"
         d="    M120.221,145.132l0.012,0.348c0,0,1.041,5.249,1.148,5.592c0,0,0.379,1.65,0.867,3.759c1.156,4.998,2.339,9.755,2.081,8.857"
         id="path241" /><path
         fill="none"
         stroke="#F78E1E"
         stroke-width="0.7838"
         stroke-miterlimit="10"
         d="M115.542,169.073    c0,0,1.957-0.236,3.129,0.021c0,0,2.215,0.49,3.127,1.223c0.808,0.661,0.188,2.35,0.245,2.15"
         id="path243" /></g></g><g
     id="Plugins"
     display="none"><image
       sodipodi:absref="/home/nkoenig/Downloads/Screen Shot 2014-03-05 at 1.07.49 PM.png"
       xlink:href="Screen Shot 2014-03-05 at 1.07.49 PM.png"
       id="image246"
       transform="matrix(0.52 0 0 0.52 -331 -140.5)"
       height="366"
       width="350"
       overflow="visible"
       display="inline" /><image
       sodipodi:absref="/home/nkoenig/Downloads/Screen Shot 2014-03-05 at 1.08.02 PM.png"
       xlink:href="Screen Shot 2014-03-05 at 1.08.02 PM.png"
       id="image248"
       transform="matrix(0.4448 0 0 0.4448 -61.5 -82)"
       height="426"
       width="317"
       overflow="visible"
       display="inline" /><g
       display="inline"
       id="g250"><path
         fill="none"
         stroke="#F78E1E"
         stroke-miterlimit="10"
         d="M11.083,304.667"
         id="path252" /></g><path
       display="inline"
       fill="#F78E1E"
       d="M269.122,141.507l0.286,32.333c0,0,3.318,10.672,15.329,3.022   c12.012-7.649,17.513-8.224,20.486,9.78c0,0-0.457,10.097-6.269,12.906c-3.048,1.475-7.715,0.461-14.244-4.02   c0,0-10.738-8.932-15.75-0.273l-0.585,0.916l-0.382,34.334c0,0-41.337,3.274-38.322-6.721c0,0-0.161-5.168,2.51-7.664   c2.67-2.496,6.844-7.655,6.183-11.49c0,0-1.819-9.67-13.15-11.186c-11.331-1.517-14.009,6.146-14.009,6.146   s-3.174,4.995,1.815,12.503c4.989,7.507,5.153,9.173,5.153,9.173s1.821,9.003-14.514,9.646s-22.834-0.365-22.834-0.365   l-0.292-28.336c0,0-3.146-14.67-15.154-8.354s-7.343,6.156-14.843,5.812c-7.499-0.344-7.813-13.012-7.813-13.012   s1.362-19.832,15.687-13.479c0,0,8.989,7.514,11.823,6.684c0.455-0.132,0.962-0.176,1.502-0.207   c2.819-0.162,6.54-0.008,8.514-10.777c2.352-12.83-2.631-25.171-0.13-26l0.669-1.332c0,0,22.167-0.469,32-0.122   s6.98,13.343,0.474,18.167c-6.506,4.825,0.314,13.168,0.314,13.168s7.492,5.178,13.827,4.854   c6.333-0.325,11.504-3.068,10.683-11.819c0,0-0.69-2.729-2.325-4.835c-3.788-4.885-9.651-12.392-2.309-17.504   c0,0,4.502-1.827,5.918-1.575c1.417,0.252,29.918-0.208,29.918-0.208"
       id="path254" /><g
       display="inline"
       id="g256"><path
         fill="#F78E1E"
         d="M120.166,98.25c0,0,24.5,1.75,8.75,25.75c0,0-4,11.25,10.25,11.25s28-0.25,28-0.25s3.625,0.375,4.5,4.625    s0.125,32.125,0.125,32.125s-1,5.875-5.625,2.375c0,0-6.125-6.75-16.375-5.125s-19,23.125-1.625,34.375    c0,0,9.125,3.375,17.25-4.375c0,0,4.75-3.375,6,1s0.625,32.5,0.625,32.5s-1.375,6.125-5.5,5.875S120,238.416,120,238.416    L120.166,98.25z"
         id="path258" /><path
         fill="#F78E1E"
         d="M120.365,98.25c0,0-24.5,1.75-8.75,25.75c0,0,4,11.25-10.25,11.25s-28-0.25-28-0.25    s-3.625,0.375-4.5,4.625S68.74,171.75,68.74,171.75s1,5.875,5.625,2.375c0,0,6.125-6.75,16.375-5.125s19,23.125,1.625,34.375    c0,0-9.125,3.375-17.25-4.375c0,0-4.75-3.375-6,1s-0.625,32.5-0.625,32.5s1.375,6.125,5.5,5.875s46.541,0.041,46.541,0.041    L120.365,98.25z"
         id="path260" /><path
         fill="#F78E1E"
         d="M120,238.416l0.166-140.167c0,0,24.5,1.75,8.75,25.75"
         id="path262" /></g></g></svg>