<?xml version="1.0" encoding="utf-8"?>
<!-- Generator: Adobe Illustrator 16.0.4, SVG Export Plug-In . SVG Version: 6.00 Build 0)  -->
<!DOCTYPE svg PUBLIC "-//W3C//DTD SVG 1.1//EN" "http://www.w3.org/Graphics/SVG/1.1/DTD/svg11.dtd">
<svg version="1.1" xmlns="http://www.w3.org/2000/svg" xmlns:xlink="http://www.w3.org/1999/xlink" x="0px" y="0px" width="300px"
	 height="300px" viewBox="0 0 300 300" enable-background="new 0 0 300 300" xml:space="preserve">
<g id="mail" display="none">
	<polygon display="inline" fill="#F78E1E" points="107.027,152.418 7.412,75.404 7.412,229.596 	"/>
	<polygon display="inline" fill="#F78E1E" points="189.912,152.418 289.527,75.404 289.527,229.596 	"/>
	<polygon display="inline" fill="#F78E1E" points="7.496,58.427 149.465,168.573 289.607,58.427 	"/>
	<polygon display="inline" fill="#F78E1E" points="185.281,161.802 150.702,188.354 114.245,160.721 7.808,241.573 290.296,241.573 
			"/>
</g>
<g id="Command_Line" display="none">
	<g display="inline">
		<rect x="21.5" y="37.5" fill="#FFFFFF" width="262" height="223.5"/>
		<path fill="#F78E1E" d="M273.5,47.5V251h-242V47.5H273.5 M293.5,27.5h-282V271h282V27.5L293.5,27.5z"/>
	</g>
	<g display="inline">
		<polygon fill="#F78E1E" points="135,112 94.5,112 94.5,120.5 135,120.5 135,112 		"/>
	</g>
	<rect x="53" y="59" display="inline" fill="none" width="89.604" height="69.5"/>
	
		<text transform="matrix(1 0 0 1 53 109.9194)" display="inline" fill="#F78E1E" stroke="#F78E1E" stroke-width="8" stroke-miterlimit="10" font-family="'OpenSans'" font-size="67">&gt;</text>
</g>
<g id="Flags" display="none">
	<g display="inline">
		<g>
			<polygon fill="#F78E1E" points="181.083,217.919 171.387,221.972 112.075,80.636 122.61,78.028 			"/>
			<path fill="none" stroke="#F78E1E" stroke-width="4.0798" stroke-miterlimit="10" d="M121.765,79.744
				c0,0-23.757-10.752-62.855,34.466c0,0-13.26,13.259-53.718,9.52l22.1,76.837c0,0,41.818,12.581,64.258-23.118
				c22.438-35.7,46.578-37.399,46.578-37.399"/>
			<polyline fill="#F78E1E" points="12.161,148.719 31.88,139.539 26.44,126.279 5.871,125.259 12.501,147.699 			"/>
			
				<rect x="32.716" y="129.841" transform="matrix(0.907 -0.421 0.421 0.907 -56.411 34.2937)" fill="#F78E1E" width="33.488" height="30.12"/>
			<polyline fill="#F78E1E" points="97.981,167.912 94.946,169.32 82.8,174.959 81.687,172.562 71.62,150.87 101.996,136.771 
				110.286,154.633 			"/>
			<path fill="#F78E1E" d="M114.011,162.656"/>
			
				<rect x="93.913" y="101.112" transform="matrix(0.907 -0.421 0.421 0.907 -38.6255 57.3879)" fill="#F78E1E" width="33.489" height="30.119"/>
			<polyline fill="#F78E1E" points="18.399,173.989 25.153,170.854 41.818,163.12 54.498,190.439 34.668,199.645 28.991,201.587 			
				"/>
			<path fill="#F78E1E" d="M106.181,180.18"/>
			<polyline fill="#F78E1E" points="100.428,167.836 99.91,166.725 51.99,189.058 58.261,202.515 83.143,190.918 			"/>
			<path fill="#F78E1E" d="M46.291,98.002"/>
			<polyline fill="#F78E1E" points="82.036,93.64 90.046,110.898 58.077,125.737 54.743,118.555 			"/>
			<path fill="#F78E1E" d="M77.366,83.579"/>
		</g>
		<g>
			<polygon fill="#F78E1E" points="118.917,217.919 128.612,221.972 187.925,80.636 177.39,78.028 			"/>
			<path fill="none" stroke="#F78E1E" stroke-width="4.0798" stroke-miterlimit="10" d="M178.235,79.744
				c0,0,23.756-10.752,62.854,34.466c0,0,13.26,13.259,53.719,9.52l-22.1,76.837c0,0-41.818,12.581-64.258-23.118
				c-22.438-35.7-46.577-37.399-46.577-37.399"/>
			<polyline fill="#F78E1E" points="287.839,148.719 268.119,139.539 273.56,126.279 294.128,125.259 287.498,147.699 			"/>
			
				<rect x="233.795" y="129.841" transform="matrix(-0.907 -0.421 0.421 -0.907 416.7843 381.8169)" fill="#F78E1E" width="33.489" height="30.12"/>
			<polyline fill="#F78E1E" points="202.018,167.912 205.054,169.32 217.2,174.959 218.312,172.562 228.381,150.87 198.004,136.771 
				189.714,154.633 			"/>
			<path fill="#F78E1E" d="M185.989,162.656"/>
			
				<rect x="172.598" y="101.112" transform="matrix(-0.907 -0.421 0.421 -0.907 312.1738 301.2632)" fill="#F78E1E" width="33.489" height="30.119"/>
			<polyline fill="#F78E1E" points="281.6,173.989 274.847,170.854 258.181,163.12 245.501,190.439 265.332,199.645 
				271.009,201.587 			"/>
			<path fill="#F78E1E" d="M193.819,180.18"/>
			<polyline fill="#F78E1E" points="199.571,167.836 200.091,166.725 248.01,189.058 241.739,202.515 216.857,190.918 			"/>
			<path fill="#F78E1E" d="M253.708,98.002"/>
			<polyline fill="#F78E1E" points="217.964,93.64 209.953,110.898 241.923,125.737 245.256,118.555 			"/>
			<path fill="#F78E1E" d="M222.633,83.579"/>
		</g>
	</g>
</g>
<g id="CloudSim" display="none">
	<g display="inline">
		<g>
			<path fill="#F78E1E" d="M40.295,158.297c-3.2-1.676-7.783-2.182-11.347-2.182c-13.171,0-20.594,9.309-20.594,21.902
				c0,12.801,7.205,21.896,20.594,21.896c3.344,0,8.439-0.436,11.347-2.176l0.296,4.361c-2.766,1.676-8.443,2.188-11.643,2.188
				c-16.008,0-25.612-10.555-25.612-26.27c0-15.424,9.896-26.266,25.612-26.266c2.983,0,9.021,0.5,11.643,1.889L40.295,158.297z"/>
			<path fill="#F78E1E" d="M53.443,148.838h4.583v54.574h-4.583V148.838z"/>
			<path fill="#F78E1E" d="M84.068,165.424c12.006,0,17.32,9.314,17.32,19.43c0,10.119-5.314,19.434-17.32,19.434
				c-12.006,0-17.316-9.314-17.316-19.434C66.751,174.738,72.062,165.424,84.068,165.424z M84.068,200.354
				c8.004,0,12.298-6.918,12.298-15.5c0-8.588-4.294-15.496-12.298-15.496s-12.295,6.908-12.295,15.496
				C71.772,193.436,76.064,200.354,84.068,200.354z"/>
			<path fill="#F78E1E" d="M138.99,194.676c0,2.836,0,5.75,0.286,8.736h-4.439v-6.627h-0.144c-1.525,3.35-4.296,7.502-12.002,7.502
				c-9.172,0-12.662-6.113-12.662-14.268v-23.719h4.583v22.557c0,6.979,2.476,11.496,8.799,11.496c8.368,0,10.99-7.348,10.99-13.533
				v-20.52h4.589V194.676z"/>
			<path fill="#F78E1E" d="M179.852,203.412h-4.578v-5.9h-0.143c-2.479,4.738-6.264,6.775-11.574,6.775
				c-10.185,0-15.28-8.451-15.28-19.434c0-11.277,4.368-19.43,15.28-19.43c7.277,0,10.919,5.316,11.574,7.127h0.143v-23.713h4.578
				V203.412z M164.284,200.354c8.153,0,10.989-8.73,10.989-15.5c0-6.766-2.836-15.496-10.989-15.496
				c-8.731,0-10.983,8.297-10.983,15.496C153.301,192.059,155.553,200.354,164.284,200.354z"/>
			<path fill="#F78E1E" d="M222.226,157.324l-6.627,3.928c-1.233-2.145-2.413-3.551-3.54-4.201
				c-1.163-0.758-2.671-1.127-4.519-1.127c-2.264,0-4.141,0.65-5.643,1.93c-1.49,1.26-2.241,2.855-2.241,4.77
				c0,2.641,1.961,4.773,5.889,6.383l5.393,2.211c4.398,1.77,7.611,3.945,9.638,6.508c2.038,2.557,3.051,5.699,3.051,9.404
				c0,4.988-1.656,9.102-4.976,12.35c-3.338,3.271-7.486,4.91-12.438,4.91c-4.696,0-8.576-1.393-11.634-4.189
				c-3.021-2.789-4.893-6.711-5.638-11.758l8.266-1.818c0.37,3.184,1.031,5.375,1.967,6.586c1.681,2.336,4.131,3.504,7.355,3.504
				c2.55,0,4.666-0.846,6.347-2.557c1.681-1.699,2.515-3.855,2.515-6.479c0-1.049-0.137-2.008-0.435-2.885
				c-0.292-0.875-0.745-1.686-1.371-2.412c-0.614-0.74-1.419-1.432-2.39-2.074c-0.99-0.639-2.152-1.246-3.504-1.838l-5.222-2.168
				c-7.414-3.129-11.121-7.701-11.121-13.725c0-4.061,1.562-7.463,4.667-10.191c3.104-2.76,6.973-4.137,11.604-4.137
				C213.847,148.248,218.721,151.275,222.226,157.324z"/>
			<path fill="#F78E1E" d="M230.772,155.078c0-1.377,0.506-2.564,1.507-3.57c1.008-1.008,2.219-1.508,3.612-1.508
				c1.418,0,2.646,0.5,3.642,1.508c1.007,0.977,1.508,2.188,1.508,3.605c0,1.432-0.501,2.646-1.508,3.654
				c-0.971,1.008-2.176,1.502-3.606,1.502c-1.424,0-2.64-0.494-3.647-1.502C231.278,157.76,230.772,156.525,230.772,155.078z
				 M239.855,169.273v34.139h-7.886v-34.139H239.855z"/>
			<path fill="#F78E1E" d="M249.844,169.273h7.885v3.158c1.514-1.584,2.808-2.662,3.886-3.223c1.145-0.584,2.581-0.877,4.315-0.877
				c3.849,0,6.9,1.682,9.142,5.049c2.48-3.367,5.829-5.049,10.061-5.049c7.683,0,11.532,4.654,11.532,13.977v21.104h-7.927v-18.957
				c0-3.273-0.399-5.586-1.186-6.939c-0.828-1.383-2.163-2.074-4.035-2.074c-2.17,0-3.754,0.824-4.75,2.457
				c-0.988,1.639-1.484,4.266-1.484,7.879v17.635h-7.92v-18.857c0-6.078-1.753-9.113-5.251-9.113c-2.223,0-3.844,0.836-4.856,2.492
				c-1.025,1.656-1.526,4.273-1.526,7.844v17.635h-7.885V169.273z"/>
		</g>
		<path fill="none" stroke="#448AC9" stroke-width="0.906" stroke-miterlimit="10" d="M102.217,113.706"/>
		<path fill="none" stroke="#448AC9" stroke-width="0.906" stroke-miterlimit="10" d="M113.804,113.051"/>
		<path fill="none" stroke="#448AC9" stroke-width="0.906" stroke-miterlimit="10" d="M99.744,127.111"/>
		<g>
			<path fill="#F78E1E" d="M152.146,120.576c0,13.785-11.179,24.962-24.963,24.962c-13.787,0-24.965-11.177-24.965-24.962
				c0-13.788,11.179-24.965,24.965-24.965C140.967,95.611,152.146,106.788,152.146,120.576z"/>
			<circle fill="#F78E1E" cx="99.742" cy="119.922" r="14.062"/>
			<path fill="#F78E1E" d="M166.312,136.077c0,10.009-8.114,18.12-18.12,18.12H84.771c-10.008,0-18.12-8.111-18.12-18.12l0,0
				c0-10.006,8.112-18.118,18.12-18.118h63.422C158.198,117.959,166.312,126.071,166.312,136.077L166.312,136.077z"/>
		</g>
		<g>
			<g id="Ear1_3_">
				<g>
					<rect x="121.2" y="114.032" fill="#FFFFFF" width="1.995" height="3.91"/>
				</g>
			</g>
			<g id="Ear2_3_">
				<g>
					<rect x="133.781" y="114.032" fill="#FFFFFF" width="2.369" height="3.91"/>
				</g>
			</g>
			<g id="Neck_3_">
				<g>
					<rect x="125.947" y="121.016" fill="#FFFFFF" width="5.308" height="1.61"/>
				</g>
			</g>
			<g id="Torso_3_">
				<g>
					<rect x="121.757" y="122.131" fill="#FFFFFF" width="13.965" height="17.854"/>
				</g>
			</g>
			<g id="Leg1_3_">
				<g>
					<rect x="122.548" y="136.376" fill="#FFFFFF" width="4.75" height="15.241"/>
				</g>
			</g>
			<g id="Foot2_3_">
				<g>
					<rect x="129.299" y="151.182" fill="#FFFFFF" width="6.424" height="3.631"/>
				</g>
			</g>
			<g id="Hand1_3_">
				<g>
					<rect x="115.611" y="134.215" fill="#FFFFFF" width="4.749" height="2.188"/>
				</g>
			</g>
			<g id="Hand2_3_">
				<g>
					<rect x="137.117" y="134.215" fill="#FFFFFF" width="4.752" height="2.188"/>
				</g>
			</g>
			<g id="Foot1_4_">
				<g>
					<rect x="121.711" y="151.182" fill="#FFFFFF" width="6.425" height="3.631"/>
				</g>
			</g>
			<g id="Leg2_3_">
				<g>
					<rect x="130.137" y="136.376" fill="#FFFFFF" width="4.748" height="15.778"/>
				</g>
			</g>
			<g id="Shoulder1_3_">
				<g>
					<rect x="117.29" y="122.969" fill="#FFFFFF" width="5.904" height="4.749"/>
				</g>
			</g>
			<g id="Shoulder2_3_">
				<g>
					<rect x="134.605" y="122.969" fill="#FFFFFF" width="5.028" height="4.749"/>
				</g>
			</g>
			<g id="Arm1_3_">
				<g>
					<rect x="116.17" y="122.969" fill="#FFFFFF" width="3.631" height="11.87"/>
				</g>
			</g>
			<g id="Arm2_3_">
				<g>
					<rect x="137.679" y="122.969" fill="#FFFFFF" width="3.631" height="11.87"/>
				</g>
			</g>
			<g id="Rectangle_1_3_">
				<g>
					<rect x="122.873" y="111.516" fill="#FFFFFF" width="11.732" height="9.778"/>
				</g>
			</g>
		</g>
	</g>
</g>
<g id="TCP_x2F_IP_Comm" display="none">
	<g display="inline">
		<g>
			<path fill="#F78E1E" d="M289.543,90.329c0,1.546-1.725,2.8-3.853,2.8H206.92c-2.129,0-3.853-1.254-3.853-2.8V55.793
				c0-1.546,1.724-2.8,3.853-2.8h78.771c2.128,0,3.853,1.254,3.853,2.8V90.329z"/>
			<polyline fill="#F78E1E" points="232.778,30.456 288.404,51.579 285.545,59.111 235.43,40.081 			"/>
			<path fill="#F78E1E" d="M291.41,59.06c0,0.604-0.489,1.095-1.094,1.095h-5.61c-0.604,0-1.095-0.491-1.095-1.095v-6.705
				c0-0.604,0.49-1.094,1.095-1.094h5.61c0.604,0,1.094,0.49,1.094,1.094V59.06z"/>
			<rect x="283.885" y="53.176" fill="#F78E1E" width="7.525" height="8.21"/>
			<rect x="203.067" y="60.838" fill="#F78E1E" width="32.839" height="35.757"/>
		</g>
		<g>
			<path fill="#F78E1E" d="M10.457,263.279c0,1.545,1.725,2.801,3.853,2.801h78.771c2.128,0,3.853-1.256,3.853-2.801v-34.537
				c0-1.545-1.725-2.801-3.853-2.801H14.31c-2.128,0-3.853,1.256-3.853,2.801V263.279z"/>
			<polyline fill="#F78E1E" points="67.223,203.406 11.596,224.529 14.455,232.061 64.57,213.031 			"/>
			<path fill="#F78E1E" d="M8.59,232.01c0,0.605,0.489,1.094,1.095,1.094h5.61c0.604,0,1.094-0.488,1.094-1.094v-6.705
				c0-0.605-0.489-1.094-1.094-1.094h-5.61c-0.605,0-1.095,0.488-1.095,1.094V232.01z"/>
			<rect x="8.59" y="226.125" fill="#F78E1E" width="7.525" height="8.211"/>
			<rect x="64.095" y="233.789" fill="#F78E1E" width="32.839" height="35.756"/>
		</g>
		<path fill="none" stroke="#F78E1E" stroke-width="10.9462" stroke-miterlimit="10" d="M201.607,76.346"/>
		<path fill="none" stroke="#F78E1E" stroke-width="14.23" stroke-miterlimit="10" d="M215.473,75.616
			c0,0-131.719-12.406-120.772,34.298c10.945,46.704,160.544,32.474,156.166,94.868C246.769,263.17,90.749,242.15,88.497,249.66"/>
	</g>
</g>
<g id="PropShop" display="none">
	
		<text transform="matrix(1 0 0 1 37.3086 168.6973)" display="inline" fill="#F78E1E" font-family="'Roboto-Medium'" font-size="50.3699">Pr    p Shop</text>
	
		<text transform="matrix(0 -1 1 0 30.96 175.6445)" display="inline" fill="#F78E1E" font-family="'Lobster1.3'" font-size="32.0536">The</text>
	<g display="inline">
		<path fill="none" stroke="#F78E1E" stroke-width="1.1756" stroke-linecap="round" stroke-miterlimit="10" d="M110.669,149.905
			c-0.245,0.134,3.835,12.062,3.835,12.062c1.271,4.312-0.49,5.477-0.49,5.477c-1.291,0.59-3.998,0.76-3.998,0.76
			c-1.053-0.026-3.042-1.204-3.042-1.204c-0.387,1.806-1.859,1.958-1.859,1.958c-3.652,1.122-4.804-0.58-4.804-0.58
			c-5.303-5.903-7.302-11.246-7.302-11.246c-2.338-6.209-0.86-8.243-0.86-8.243c0.401-1.723,4.525-2.06,4.525-2.06
			c1.833,0.051,2.497-1.06,2.497-1.06c0.45-1.937,1.587-3.071,1.587-3.071c0.896-1.304,5.005-1.729,5.005-1.729
			c1.537-0.103,1.899-0.741,1.899-0.741c1.497-3.235,4.496-3.516,4.496-3.516c2.451-0.662,5.517,1.114,5.517,1.114
			c0.322,0.137,1.431,0.294,1.948-0.452c1.404-2.027,4.114-2.52,4.114-2.52s4.53-0.628,6.982,2.627c0,0,2.441,2.212,2.862,8.236
			c0,0,0.307,5.133,0.457,6.705c0,0,0.945,3.834,0.905,4.919c0,0,0.355,2.781-2.212,5.678c-0.176,0.201-0.371,0.404-0.58,0.607
			c0,0-2.905,2.089-7.073,0.406c0,0-0.662-0.031-0.793,0.232c0,0-0.851,1.239-2.528,2.351c0,0-2.364,1.773-5.987,0.615
			c0,0-0.04-0.1-0.384,0.511c0,0-0.471,0.372,0.081,1.587c0,0,0.304,1.174,2.067,1.682c0,0,2.543,1.452,4.017,1.658
			c0,0,0.127,0.063,0.361,0.143c0.702,0.24,2.383,0.613,4.562-0.215c0,0,2.871-0.978,4.151-2.8c0,0,1.368-1.985,1.977-4.368
			c0.608-2.388,0.149-0.688,0.208-0.852c0.062-0.158,0.358-1.416,0.139-1.487"/>
		<path fill="none" stroke="#F78E1E" stroke-width="1.5675" stroke-linecap="round" stroke-miterlimit="10" d="M102.109,153.932
			c0,0,2.085,4.917,2.823,6.237c0,0,2.396,5.211,2.074,6.707"/>
		
			<path fill="none" stroke="#F78E1E" stroke-width="1.5675" stroke-linecap="round" stroke-linejoin="round" stroke-miterlimit="10" d="
			M120.221,145.132l0.012,0.348c0,0,1.041,5.249,1.148,5.592c0,0,0.379,1.65,0.867,3.759c1.156,4.998,2.339,9.755,2.081,8.857"/>
		<path fill="none" stroke="#F78E1E" stroke-width="0.7838" stroke-miterlimit="10" d="M115.542,169.073
			c0,0,1.957-0.236,3.129,0.021c0,0,2.215,0.49,3.127,1.223c0.808,0.661,0.188,2.35,0.245,2.15"/>
	</g>
</g>
<g id="Plugins" display="none">
	<g display="inline">
		<path fill="none" stroke="#F78E1E" stroke-miterlimit="10" d="M11.083,304.667"/>
	</g>
	<g display="inline">
		<g>
			<path fill="#F78E1E" d="M246.063,225.321c0,0,20.971-1.498,7.489-22.04c0,0-3.423-9.629,8.773-9.629
				c12.197,0,23.966,0.214,23.966,0.214s3.103-0.321,3.852-3.959s0.107-27.496,0.107-27.496s-0.856-5.028-4.814-2.033
				c0,0-5.243,5.777-14.016,4.387c-8.773-1.391-16.263-19.793-1.392-29.423c0,0,7.811-2.889,14.765,3.745
				c0,0,4.066,2.889,5.136-0.856c1.07-3.744,0.535-27.817,0.535-27.817s-1.177-5.242-4.708-5.028
				c-3.53,0.214-39.835-0.035-39.835-0.035L246.063,225.321z"/>
			<path fill="#F78E1E" d="M246.234,225.321c0,0-20.971-1.498-7.489-22.04c0,0,3.424-9.629-8.773-9.629s-23.966,0.214-23.966,0.214
				s-3.103-0.321-3.852-3.959s-0.107-27.496-0.107-27.496s0.856-5.028,4.814-2.033c0,0,5.243,5.777,14.017,4.387
				c8.772-1.391,16.262-19.793,1.391-29.423c0,0-7.811-2.889-14.765,3.745c0,0-4.065,2.889-5.136-0.856
				c-1.07-3.744-0.535-27.817-0.535-27.817s1.177-5.242,4.708-5.028c3.53,0.214,39.835-0.035,39.835-0.035L246.234,225.321z"/>
			<path fill="#F78E1E" d="M245.922,105.35l0.142,119.972c0,0,20.971-1.498,7.489-22.04"/>
		</g>
		<path fill="none" stroke="#F78E1E" stroke-width="0.8559" stroke-miterlimit="10" d="M117.391,172.896"/>
		<path fill="#F78E1E" d="M71.883,149.715c0,0,0.143-12.053,11.127-12.48c0,0,5.42,0.285,8.416,3.994
			c2.996,3.709,7.704,3.424,7.704,3.424s5.849-0.57,7.847-5.563c1.996-4.993,1.568-5.991,1.568-5.991l-0.57-24.965l29.387-0.714
			c0,0,8.558,0.714,7.56,7.847s-3.994,8.559-3.994,8.559s-11.841,12.553,9.701,18.83l-0.144,14.409c0,0-9.701,0.998-12.839,6.133
			c-3.138,5.136,4.708,15.122,4.708,15.122s5.849,11.698-5.848,14.266l-28.104-0.428l-0.428-26.534c0,0-0.284-7.275-6.848-9.415
			c-6.562-2.14-11.911,4.136-11.911,4.136s-7.675,5.146-12.839,0.357C74.336,158.809,72.246,155.775,71.883,149.715"/>
		<path fill="#F78E1E" d="M228.519,149.715c0,0-0.145-12.053-11.127-12.48c0,0-5.422,0.285-8.418,3.994
			c-2.995,3.709-7.703,3.424-7.703,3.424s-5.85-0.57-7.846-5.563c-1.997-4.993-1.569-5.991-1.569-5.991l0.57-24.965l-29.386-0.714
			c0,0-8.56,0.714-7.562,7.847s3.994,8.559,3.994,8.559s11.841,12.553-9.7,18.83l0.142,14.409c0,0,9.702,0.998,12.839,6.133
			c3.138,5.136-4.707,15.122-4.707,15.122s-5.85,11.698,5.849,14.266l28.103-0.428l0.428-26.534c0,0,0.285-7.275,6.847-9.415
			c6.563-2.14,11.842,4.279,11.842,4.279s7.746,5.002,12.91,0.214C226.064,158.809,228.155,155.775,228.519,149.715"/>
		<g>
			<path fill="#F78E1E" d="M53.766,74.679c0,0,20.97,1.498,7.489,22.04c0,0-3.423,9.629,8.773,9.629s23.966-0.214,23.966-0.214
				s3.103,0.321,3.852,3.959s0.107,27.496,0.107,27.496s-0.856,5.028-4.814,2.033c0,0-5.243-5.777-14.016-4.387
				c-8.773,1.391-16.263,19.793-1.391,29.422c0,0,7.811,2.89,14.765-3.744c0,0,4.066-2.889,5.136,0.855
				c1.07,3.745,0.535,27.818,0.535,27.818s-1.177,5.242-4.708,5.028c-3.53-0.214-39.835,0.035-39.835,0.035L53.766,74.679z"/>
			<path fill="#F78E1E" d="M53.936,74.679c0,0-20.97,1.498-7.489,22.04c0,0,3.424,9.629-8.773,9.629
				c-12.197,0-23.966-0.214-23.966-0.214s-3.103,0.321-3.852,3.959s-0.107,27.496-0.107,27.496s0.856,5.028,4.814,2.033
				c0,0,5.243-5.777,14.016-4.387c8.773,1.391,16.262,19.793,1.391,29.422c0,0-7.81,2.89-14.765-3.744c0,0-4.065-2.889-5.136,0.855
				c-1.07,3.745-0.535,27.818-0.535,27.818s1.177,5.242,4.708,5.028s39.835,0.035,39.835,0.035L53.936,74.679z"/>
			<path fill="#F78E1E" d="M53.624,194.65l0.142-119.972c0,0,20.97,1.498,7.489,22.04"/>
		</g>
	</g>
</g>
<g id="Sesnors2" display="none">
	<g display="inline">
		<path fill="#F78E1E" d="M268.695,70.567H136.309V56.102c0-4.565-3.701-8.266-8.266-8.266H64.497c-4.565,0-8.266,3.7-8.266,8.266
			v14.466H31.305c-11.628,0-21.055,9.427-21.055,21.055v139.487c0,11.628,9.426,21.055,21.055,21.055h237.391
			c11.628,0,21.055-9.427,21.055-21.055V91.622C289.75,79.994,280.323,70.567,268.695,70.567z M83.612,117.409
			c-4.851,0-8.783-3.933-8.783-8.783s3.932-8.782,8.783-8.782s8.783,3.932,8.783,8.782S88.463,117.409,83.612,117.409z
			 M150.646,211.351c-24.61,0-44.56-19.95-44.56-44.56s19.95-44.56,44.56-44.56s44.56,19.95,44.56,44.56
			S175.256,211.351,150.646,211.351z M268.052,117.84c0,2.854-2.313,5.166-5.167,5.166H208.38c-1.037,0-1.999-0.312-2.809-0.839
			c-1.307-0.938-2.164-2.46-2.164-4.189V99.895c0-2.853,2.312-5.166,5.166-5.166h54.506c1.037,0,1.998,0.312,2.808,0.839
			c1.307,0.938,2.165,2.46,2.165,4.19V117.84z"/>
		<circle fill="#F78E1E" cx="150.259" cy="166.834" r="30.998"/>
		<g>
			<path fill="#F78E1E" d="M262.69,115.083c0,1.94-1.947,3.513-4.35,3.513h-45.89c-2.403,0-4.351-1.572-4.351-3.513v-12.295
				c0-1.94,1.947-3.513,4.351-3.513h45.89c2.402,0,4.35,1.572,4.35,3.513V115.083z"/>
		</g>
	</g>
</g>
<g id="Wiki">
	<g>
		<path fill="#FFFFFF" stroke="#456B91" stroke-width="10.036" d="M113.951,215.845"/>
		<path fill="#FFFFFF" stroke="#456B91" stroke-width="13.0952" d="M189.221,97.309"/>
		<path fill="#FFFFFF" stroke="#456B91" stroke-width="13.0952" d="M120.38,35.155"/>
		<path fill="#FFFFFF" stroke="#456B91" stroke-width="10.036" d="M169.148,125.521"/>
		<path fill="#FFFFFF" stroke="#456B91" stroke-width="10.036" d="M33.663,125.521"/>
		<path fill="#FFFFFF" stroke="#456B91" stroke-width="10.036" d="M169.148,160.646"/>
		<path fill="#FFFFFF" stroke="#456B91" stroke-width="10.036" d="M33.663,160.646"/>
		<path fill="#FFFFFF" stroke="#456B91" stroke-width="10.036" d="M169.148,195.772"/>
		<path fill="#FFFFFF" stroke="#456B91" stroke-width="10.036" d="M33.663,195.772"/>
		<path fill="#FFFFFF" stroke="#456B91" stroke-width="10.036" d="M169.148,235.916"/>
		<path fill="#FFFFFF" stroke="#456B91" stroke-width="10.036" d="M33.663,235.916"/>
		<g id="XMLID_2_">
			<g>
				<polygon fill="#FFFFFF" points="139.01,80.375 189.189,80.375 189.189,266.041 18.578,266.041 18.578,35.213 139.01,35.213 				
					"/>
			</g>
			<g>
				<polyline fill="none" stroke="#F78E1E" stroke-width="10.036" points="13.56,35.213 18.578,35.213 139.01,35.213 
					141.669,35.213 144.028,35.213 				"/>
				<polyline fill="none" stroke="#F78E1E" stroke-width="10.036" points="189.189,75.357 189.189,77.716 189.189,80.375 
					189.189,266.041 				"/>
				<polyline fill="none" stroke="#F78E1E" stroke-width="10.036" points="194.208,266.041 189.189,266.041 18.578,266.041 
					13.56,266.041 				"/>
				<line fill="none" stroke="#F78E1E" stroke-width="10.036" x1="18.578" y1="266.041" x2="18.578" y2="35.213"/>
				<line fill="none" stroke="#F78E1E" stroke-width="10.036" x1="139.01" y1="35.213" x2="139.01" y2="80.375"/>
				<polyline fill="none" stroke="#F78E1E" stroke-width="10.036" points="133.992,80.375 139.01,80.375 189.189,80.375 				"/>
				<polyline fill="none" stroke="#F78E1E" stroke-width="10.036" points="140.264,33.959 141.669,35.213 189.189,77.716 
					190.444,78.82 				"/>
			</g>
		</g>
		<line fill="#FFFFFF" stroke="#F78E1E" stroke-width="11" x1="35" y1="175.5" x2="170" y2="175.5"/>
		<line fill="#FFFFFF" stroke="#F78E1E" stroke-width="11" x1="35" y1="124.5" x2="170" y2="124.5"/>
		<line fill="#FFFFFF" stroke="#F78E1E" stroke-width="11" x1="35" y1="219.5" x2="110" y2="219.5"/>
		<path fill="#F78E1E" d="M258.081,53.485L126.716,184.844l-9.629,38.527l36.924-9.364L286.439,81.993
			C281.059,56.727,258.081,53.485,258.081,53.485z M153.188,209.498l-13.745,2.96c0,0-0.52-5.732-11.997-11.819l2.432-13.397
			l3.131-3.994c0,0,17.744,0.69,24.526,22.959L153.188,209.498z"/>
	</g>
</g>
<g id="Sensors" display="none">
	<g display="inline">
		<rect x="142.133" y="152.482" fill="#F78E1E" width="16.578" height="4.963"/>
		<polygon fill="#F78E1E" points="109.26,186.385 104.483,172.338 142.133,157.389 158.43,157.389 195.234,172.338 190.459,186.385 
					"/>
		<path fill="#F78E1E" d="M287.111,113.615H12.888c-4.345,0-7.867,3.627-7.867,8.101v22.759c0,4.474,3.522,8.101,7.867,8.101
			h274.223c4.346,0,7.867-3.626,7.867-8.101v-22.759C294.979,117.242,291.457,113.615,287.111,113.615z M80.32,141.993
			c-5.121,0-9.272-4.152-9.272-9.272c0-5.121,4.151-9.272,9.272-9.272c5.12,0,9.272,4.151,9.272,9.272
			C89.592,137.841,85.44,141.993,80.32,141.993z M107.996,134.687c-1.164,0-2.107-0.943-2.107-2.107s0.944-2.107,2.107-2.107
			s2.107,0.943,2.107,2.107S109.159,134.687,107.996,134.687z M135.109,141.993c-5.121,0-9.272-4.152-9.272-9.272
			c0-5.121,4.151-9.272,9.272-9.272s9.271,4.151,9.271,9.272C144.38,137.841,140.229,141.993,135.109,141.993z M163.486,141.993
			c-5.121,0-9.271-4.152-9.271-9.272c0-5.121,4.15-9.272,9.271-9.272s9.271,4.151,9.271,9.272
			C172.758,137.841,168.607,141.993,163.486,141.993z"/>
	</g>
</g>
<g id="Graphics" display="none">
	<g display="inline">
		<g>
			<path fill="none" stroke="#F78E1E" stroke-width="9.9282" stroke-miterlimit="10" d="M7.573,149.615
				c0,0,131.348-150.115,281.433,3.41"/>
			<path fill="none" stroke="#F78E1E" stroke-width="9.9282" stroke-miterlimit="10" d="M7.344,142.942
				c0,0,135.227,160.119,285.312,6.603"/>
		</g>
		<path fill="none" stroke="#F2F2F2" stroke-width="6.102" stroke-miterlimit="10" d="M148.299,149.574"/>
		<path fill="#F78E1E" d="M191.778,149.574c0,24.038-19.471,43.5-43.489,43.5c-24.018,0-43.489-19.462-43.489-43.5
			c0-24.016,19.472-43.489,43.489-43.489C172.308,106.085,191.778,125.559,191.778,149.574z"/>
		<path fill="none" stroke="#F2F2F2" stroke-width="6.102" stroke-miterlimit="10" d="M142.928,120.455
			c0,0-15.372,0.702-23.067,18.884"/>
	</g>
</g>
</svg>
